<?xml version="1.0" encoding="UTF-8"?>
<svg xmlns="http://www.w3.org/2000/svg" xmlns:xlink="http://www.w3.org/1999/xlink" version="1.1" width="186.25" height="199.74999993294477">
  <defs>
    <clipPath id="clip1">
      <path d="M0 0L186.25 0L186.25 199.74999993294477L0 199.74999993294477L0 0"/>
    </clipPath>
    <clipPath id="clip2">
      <path d="M32.783307086614158 8.783307086614176L174.96669291338583 8.783307086614176L174.96669291338583 181.9666928463306L32.783307086614158 181.9666928463306L32.783307086614158 8.783307086614176"/>
    </clipPath>
  </defs>
  <g clip-path="url(#clip1)">
    <path d="M0.12 0.12L0.12 199.62999993294477L186.13 199.62999993294477L186.13 0.12L0.12 0.12z" fill="#ffffff" stroke-width="0.23999999999999999" stroke="#000000"/>
    <path d="M32.783307086614158 8.783307086614176L32.783307086614158 181.9666928463306L174.96669291338583 181.9666928463306L174.96669291338583 8.783307086614176L32.783307086614158 8.783307086614176z" fill="#d0d0d0" stroke-width="1" stroke="#848284"/>
    <path d="M32.783307086614158 181.9666928463306L174.96669291338583 181.9666928463306" fill="none" stroke-width="0.23999999999999999" stroke="#000000"/>
    <path d="M32.783307086614158 186.08669284633061L32.783307086614158 181.9666928463306" fill="none" stroke-width="0.23999999999999999" stroke="#000000"/>
    <path d="M42.2621994750656 186.08669284633061L42.2621994750656 181.9666928463306" fill="none" stroke-width="0.23999999999999999" stroke="#000000"/>
    <path d="M51.741091863517042 186.08669284633061L51.741091863517042 181.9666928463306" fill="none" stroke-width="0.23999999999999999" stroke="#000000"/>
    <path d="M61.219984251968491 186.08669284633061L61.219984251968491 181.9666928463306" fill="none" stroke-width="0.23999999999999999" stroke="#000000"/>
    <path d="M70.69887664041994 186.08669284633061L70.69887664041994 181.9666928463306" fill="none" stroke-width="0.23999999999999999" stroke="#000000"/>
    <path d="M80.177769028871381 186.08669284633061L80.177769028871381 181.9666928463306" fill="none" stroke-width="0.23999999999999999" stroke="#000000"/>
    <path d="M89.656661417322823 186.08669284633061L89.656661417322823 181.9666928463306" fill="none" stroke-width="0.23999999999999999" stroke="#000000"/>
    <path d="M99.135553805774265 186.08669284633061L99.135553805774265 181.9666928463306" fill="none" stroke-width="0.23999999999999999" stroke="#000000"/>
    <path d="M108.61444619422571 186.08669284633061L108.61444619422571 181.9666928463306" fill="none" stroke-width="0.23999999999999999" stroke="#000000"/>
    <path d="M118.09333858267715 186.08669284633061L118.09333858267715 181.9666928463306" fill="none" stroke-width="0.23999999999999999" stroke="#000000"/>
    <path d="M127.57223097112859 186.08669284633061L127.57223097112859 181.9666928463306" fill="none" stroke-width="0.23999999999999999" stroke="#000000"/>
    <path d="M137.05112335958003 186.08669284633061L137.05112335958003 181.9666928463306" fill="none" stroke-width="0.23999999999999999" stroke="#000000"/>
    <path d="M146.53001574803147 186.08669284633061L146.53001574803147 181.9666928463306" fill="none" stroke-width="0.23999999999999999" stroke="#000000"/>
    <path d="M156.00890813648294 186.08669284633061L156.00890813648294 181.9666928463306" fill="none" stroke-width="0.23999999999999999" stroke="#000000"/>
    <path d="M165.48780052493436 186.08669284633061L165.48780052493436 181.9666928463306" fill="none" stroke-width="0.23999999999999999" stroke="#000000"/>
    <path d="M174.96669291338583 186.08669284633061L174.96669291338583 181.9666928463306" fill="none" stroke-width="0.23999999999999999" stroke="#000000"/>
    <text x="32.783307086614158" y="194.08669284633061" text-anchor="middle" transform="rotate(-0,32.783307086614158,191.08669284633061)" fill="#000000" font-family="Sans" font-size="8">1</text>
    <text x="51.741091863517042" y="194.08669284633061" text-anchor="middle" transform="rotate(-0,51.741091863517042,191.08669284633061)" fill="#000000" font-family="Sans" font-size="8">3</text>
    <text x="70.69887664041994" y="194.08669284633061" text-anchor="middle" transform="rotate(-0,70.69887664041994,191.08669284633061)" fill="#000000" font-family="Sans" font-size="8">5</text>
    <text x="89.656661417322823" y="194.08669284633061" text-anchor="middle" transform="rotate(-0,89.656661417322823,191.08669284633061)" fill="#000000" font-family="Sans" font-size="8">7</text>
    <text x="108.61444619422571" y="194.08669284633061" text-anchor="middle" transform="rotate(-0,108.61444619422571,191.08669284633061)" fill="#000000" font-family="Sans" font-size="8">9</text>
    <text x="127.57223097112859" y="194.08669284633061" text-anchor="middle" transform="rotate(-0,127.57223097112859,191.08669284633061)" fill="#000000" font-family="Sans" font-size="8">11</text>
    <text x="146.53001574803147" y="194.08669284633061" text-anchor="middle" transform="rotate(-0,146.53001574803147,191.08669284633061)" fill="#000000" font-family="Sans" font-size="8">13</text>
    <text x="165.48780052493436" y="194.08669284633061" text-anchor="middle" transform="rotate(-0,165.48780052493436,191.08669284633061)" fill="#000000" font-family="Sans" font-size="8">15</text>
    <path d="M32.783307086614158 181.9666928463306L32.783307086614158 8.7833070866141725" fill="none" stroke-width="0.23999999999999999" stroke="#000000"/>
    <path d="M28.663307086614157 181.9666928463306L32.783307086614158 181.9666928463306" fill="none" stroke-width="0.23999999999999999" stroke="#000000"/>
    <text x="23.663307086614157" y="184.9666928463306" text-anchor="middle" transform="rotate(-0,23.663307086614157,181.9666928463306)" fill="#000000" font-family="Sans" font-size="8">0</text>
    <path d="M28.663307086614157 147.33001569438733L32.783307086614158 147.33001569438733" fill="none" stroke-width="0.23999999999999999" stroke="#000000"/>
    <text x="18.663307086614161" y="150.33001569438733" text-anchor="middle" transform="rotate(-0,18.663307086614161,147.33001569438733)" fill="#000000" font-family="Sans" font-size="8">200</text>
    <path d="M28.663307086614164 112.69333854244404L32.783307086614165 112.69333854244404" fill="none" stroke-width="0.23999999999999999" stroke="#000000"/>
    <text x="18.663307086614161" y="115.69333854244404" text-anchor="middle" transform="rotate(-0,18.663307086614161,112.69333854244404)" fill="#000000" font-family="Sans" font-size="8">400</text>
    <path d="M28.663307086614164 78.05666139050075L32.783307086614165 78.05666139050075" fill="none" stroke-width="0.23999999999999999" stroke="#000000"/>
    <text x="18.663307086614164" y="81.05666139050075" text-anchor="middle" transform="rotate(-0,18.663307086614164,78.05666139050075)" fill="#000000" font-family="Sans" font-size="8">600</text>
    <path d="M28.663307086614164 43.419984238557475L32.783307086614165 43.419984238557475" fill="none" stroke-width="0.23999999999999999" stroke="#000000"/>
    <text x="18.663307086614164" y="46.419984238557475" text-anchor="middle" transform="rotate(-0,18.663307086614164,43.419984238557475)" fill="#000000" font-family="Sans" font-size="8">800</text>
    <path d="M28.663307086614164 8.7833070866141725L32.783307086614165 8.7833070866141725" fill="none" stroke-width="0.23999999999999999" stroke="#000000"/>
    <text x="16.163307086614168" y="11.783307086614171" text-anchor="middle" transform="rotate(-0,16.163307086614168,8.7833070866141707)" fill="#000000" font-family="Sans" font-size="8">1000</text>
    <g clip-path="url(#clip2)">
      <path d="M32.783307086614158 181.9666928463306L32.783307086614158 181.9666928463306L42.2621994750656 181.79350946057087L51.741091863517042 181.70691776769104L61.219984251968484 181.62032607481117L70.698876640419925 181.53373438193131L80.177769028871381 181.44714268905145L89.656661417322823 181.36055099617158L99.135553805774265 181.27395930329175L108.61444619422571 181.18736761041188L118.09333858267715 181.10077591753202L127.57223097112859 181.01418422465215L137.05112335958003 180.92759253177229L146.53001574803147 180.84100083889246L156.00890813648292 180.75440914601259L165.48780052493436 180.66781745313273L174.9666929133858 180.58122576025286" fill="none" stroke-width="0.23999999999999999" stroke="#000080"/>
      <path d="M32.783307086614158 178.50302513113627L32.783307086614158 178.50302513113627L42.2621994750656 155.98918498237313L51.741091863517042 155.98918498237313L61.219984251968484 127.41392633201993L70.698876640419925 127.41392633201993L80.177769028871381 83.252162963292236L89.656661417322823 83.252162963292236L99.135553805774265 40.822233452161719L108.61444619422571 40.822233452161719L118.09333858267715 93.643166108875221L127.57223097112859 93.643166108875221L137.05112335958003 108.36375389845112L146.53001574803147 108.36375389845112L156.00890813648292 117.88884011523552L165.48780052493436 117.88884011523552L174.9666929133858 175.03935741594194" fill="none" stroke-width="0.23999999999999999" stroke="#000000"/>
      <path d="M32.783307086614158 178.50302513113627L32.783307086614158 178.50302513113627L42.2621994750656 168.97793891435188L51.741091863517042 155.98918498237313L61.219984251968484 141.26859719279724L70.698876640419925 127.41392633201993L80.177769028871381 105.76600311205537L89.656661417322823 83.252162963292236L99.135553805774265 40.822233452161719L108.61444619422571 40.822233452161719L118.09333858267715 93.643166108875221L127.57223097112859 93.643166108875221L137.05112335958003 100.22413476774445L146.53001574803147 108.36375389845112L156.00890813648292 114.42517240004119L165.48780052493436 117.88884011523552L174.9666929133858 175.03935741594194" fill="none" stroke-width="0.23999999999999999" stroke="#ff00ff"/>
    </g>
  </g>
</svg>
